<?xml version="1.0" encoding="UTF-8"?>
<svg id="Capa_2" data-name="Capa 2" xmlns="http://www.w3.org/2000/svg" viewBox="0 0 161.77 161.77">
  <defs>
    <style>
      .cls-1 {
        fill: #29b5e2;
      }

      .cls-2 {
        fill: #3b9ed5;
      }

      .cls-3 {
        fill: #fff;
      }

      .cls-4 {
        fill: #6f5aad;
      }

      .cls-5 {
        fill: #4c88c8;
      }

      .cls-6 {
        fill: #5e71bb;
      }

      .cls-7 {
        fill: #8044a0;
      }

      .cls-8 {
        fill: #922d93;
      }
    </style>
  </defs>
  <g id="Capa_1-2" data-name="Capa 1">
    <g>
      <rect class="cls-3" x="0" width="161.77" height="161.77" rx="29" ry="29"/>
      <g>
        <path class="cls-8" d="M112.59,69.97c-1.73-2.89-4.63-4.25-7.44-5.56-2.03-.94-3.93-1.84-5.45-3.26-2.34-2.2-3.72-4.89-5.06-7.48-2.92-5.65-5.68-10.98-17.54-9.15-6.58,1.02-8.44,5.48-10.21,9.79-.93,2.22-1.79,4.3-3.27,5.99-2.03,2.3-4.79,3.62-7.46,4.89-5.68,2.7-11.54,5.51-8.72,17.72,1.27,5.59,5.59,7.72,9.75,9.78,2.23,1.1,4.33,2.14,5.93,3.67,1.92,1.83,3.19,4.33,4.42,6.76,2.45,4.79,4.95,9.74,12.34,9.74,1.16,0,2.43-.13,3.85-.39,7.46-1.37,9.31-5.61,11.1-9.68,1-2.27,2.03-4.62,4.03-6.62,1.57-1.57,4.13-2.67,6.61-3.75,2.12-.9,4.1-1.76,5.32-2.87,4.95-4.52,5.03-14.26,1.82-19.59ZM109.82,88.52c-1.04.94-2.93,1.76-4.92,2.62-2.6,1.12-5.29,2.27-7.06,4.05-2.19,2.19-3.27,4.65-4.32,7.05-1.79,4.07-3.35,7.61-10.05,8.85-9.39,1.73-11.84-3.06-14.66-8.59-1.29-2.53-2.62-5.16-4.7-7.16-1.76-1.67-4.06-2.82-6.28-3.92-4.05-2-7.88-3.89-9.01-8.82-2.55-11.08,2.32-13.41,7.95-16.1,2.8-1.33,5.69-2.72,7.92-5.23,1.64-1.86,2.59-4.16,3.52-6.39,1.72-4.13,3.32-8.02,9.12-8.92,1.57-.24,2.97-.36,4.22-.36,7.31,0,9.34,3.95,11.83,8.75,1.4,2.7,2.83,5.49,5.35,7.85,1.69,1.59,3.79,2.57,5.82,3.53,2.73,1.27,5.32,2.49,6.83,4.99,1.3,2.17,2.02,5.13,2.02,8.11,0,3.7-1.1,7.44-3.57,9.71Z"/>
        <path class="cls-7" d="M63.7,50.5c-.92,2.16-1.78,4.2-3.15,5.88-.22.27-.45.53-.7.78-1.16,1.18-2.51,2.08-3.94,2.88-1.51.85-3.11,1.58-4.64,2.41-.63.34-1.25.7-1.85,1.09-5.23,3.36-9.26,8.57-6.98,19.83.92,4.55,3.32,7.46,6.18,9.62,1.15.87,2.39,1.62,3.65,2.31,1.4.76,2.8,1.45,4.09,2.21.96.56,1.87,1.16,2.68,1.85.73.62,1.4,1.32,2.01,2.08,1.33,1.66,2.25,3.52,3.18,5.39.89,1.79,1.8,3.59,3.16,5.25,2.73,3.33,6.75,5.74,12.75,5.74,1.41,0,2.92-.13,4.54-.4,4.59-.78,7.68-2.47,9.76-4.68,1.72-1.83,2.7-4.05,3.65-6.21.85-1.92,1.7-3.84,3.05-5.54.52-.65,1.1-1.25,1.76-1.82.72-.61,1.57-1.15,2.5-1.66,1.59-.86,3.38-1.64,5.09-2.52.34-.18.68-.36,1.01-.55,1.77-.99,3.35-2.09,4.43-3.4,4.69-5.68,4.84-16.45,1.6-22.71-.75-1.45-1.7-2.61-2.77-3.57-1.53-1.37-3.35-2.35-5.19-3.25-.73-.36-1.45-.7-2.15-1.05-1.47-.75-2.87-1.55-4.08-2.62-.81-.72-1.54-1.5-2.18-2.34-.92-1.21-1.58-2.42-2.19-3.63-.43-.86-.85-1.74-1.33-2.61-3.44-6.29-7.93-11.13-19.86-9.75-1.37.16-2.63.38-3.75.72-3.04.94-5.86,2.84-7.55,5.06-1.19,1.56-1.99,3.41-2.77,5.23ZM65.02,51.05c1.04-2.44,2.03-4.8,3.77-6.57,1.5-1.54,3.71-2.72,6.68-3.25,1.75-.32,3.35-.5,4.71-.53,8.29-.26,12.96,3.37,16.19,9.23.42.76.78,1.53,1.16,2.3.58,1.19,1.21,2.38,2.09,3.6.87,1.2,1.89,2.29,3.06,3.27.86.72,1.78,1.33,2.74,1.88,1.38.8,2.81,1.49,4.16,2.24.79.44,1.54.9,2.25,1.41,1.92,1.35,3.61,3,4.7,5.37,1.25,2.71,1.9,6.2,1.82,9.66-.1,4.47-1.37,8.89-4.06,11.55-.14.14-.29.28-.46.41-1.32,1.1-3.26,1.94-5.25,2.79-1.85.78-3.75,1.59-5.35,2.69-.93.64-1.75,1.35-2.45,2.15-.8.91-1.46,1.87-2.04,2.84-1.04,1.73-1.83,3.53-2.74,5.22-.27.5-.54.98-.83,1.45-2.19,3.55-5.1,6.34-11.47,7.34-8.99,1.41-13.25-2.2-16.5-7.12-.34-.52-.67-1.04-.99-1.57-.9-1.52-1.68-3.08-2.57-4.59-.75-1.28-1.58-2.52-2.64-3.62-.45-.47-.95-.91-1.48-1.33-1.67-1.31-3.64-2.29-5.54-3.23-2.46-1.22-4.82-2.4-6.63-4.25-1.55-1.58-2.75-3.62-3.36-6.34-2.55-11.37,1.74-16.13,7.46-19.82.16-.1.31-.2.47-.31,1.81-1.15,3.77-2.09,5.65-3.26,1.09-.68,2.15-1.44,3.12-2.37.47-.45.89-.93,1.29-1.45,1.32-1.73,2.19-3.78,3.04-5.77Z"/>
        <path class="cls-4" d="M60.51,46.68c-1.04,2.4-2.02,4.67-3.61,6.49-.26.29-.53.57-.81.84-1.33,1.25-2.88,2.17-4.52,3.02-1.71.89-3.5,1.69-5.17,2.69-.68.41-1.35.86-1.99,1.35-5.42,4.18-9.03,11.24-6.96,22.78.91,5.05,3.2,8.67,6.02,11.25,1.19,1.09,2.51,2.01,3.89,2.82,1.52.89,3.08,1.66,4.55,2.49,1.09.61,2.12,1.24,3.05,1.96.86.66,1.64,1.39,2.35,2.22,1.59,1.83,2.59,3.88,3.6,5.95,1.01,2.09,2.08,4.21,3.89,6.15,3.39,3.63,8.7,6.08,15.59,6.08,1.67,0,3.41-.14,5.22-.42,5.1-.8,8.87-2.59,11.4-5.03,2.1-2.03,3.23-4.58,4.32-7.07.97-2.19,1.92-4.35,3.5-6.18.62-.71,1.31-1.35,2.09-1.93.85-.64,1.84-1.2,2.89-1.73,1.82-.92,3.83-1.77,5.68-2.88.37-.22.73-.45,1.08-.69,1.8-1.2,3.35-2.64,4.47-4.33,4.49-6.78,4.65-18.64,1.39-25.82-.76-1.68-1.73-3.06-2.82-4.19-1.61-1.68-3.61-2.85-5.66-3.9-.8-.41-1.6-.8-2.39-1.2-1.64-.84-3.23-1.72-4.62-2.89-.93-.78-1.76-1.64-2.49-2.6-1.08-1.41-1.76-2.77-2.38-4.13-.45-.98-.89-1.97-1.46-2.97-3.94-6.93-10.21-11.38-22.18-10.36-1.65.14-3.19.33-4.59.67-3.48.86-7.57,2.88-9.76,5.3-1.62,1.79-2.62,4.04-3.58,6.25ZM61.82,47.24c1.17-2.71,2.29-5.3,4.3-7.22,1.68-1.61,4.28-2.86,7.47-3.51,1.93-.39,3.72-.63,5.21-.71,9.28-.51,16.59,2.8,20.56,9.71.51.88.89,1.76,1.3,2.67.61,1.35,1.27,2.72,2.35,4.17s2.26,2.59,3.63,3.65c1.02.78,2.11,1.45,3.21,2.06,1.62.9,3.26,1.71,4.76,2.65.87.55,1.68,1.15,2.44,1.82,1.91,1.69,3.57,3.86,4.62,6.74,1.2,3.25,1.78,7.26,1.63,11.2-.2,5.24-1.64,10.33-4.54,13.39-.16.17-.33.34-.51.5-1.56,1.39-3.76,2.34-5.98,3.28-2.06.87-4.18,1.77-5.93,3.09-1.01.76-1.87,1.61-2.6,2.55-.83,1.06-1.51,2.16-2.12,3.27-1.08,1.95-1.98,3.96-3.12,5.79-.33.53-.68,1.04-1.06,1.53-2.76,3.62-6.7,6.3-13.49,7.19-9.43,1.26-15.19-2.14-19.1-7.11-.44-.55-.84-1.11-1.22-1.67-1.12-1.67-1.97-3.4-2.91-5.11-.8-1.44-1.66-2.86-2.81-4.15-.48-.54-1.02-1.06-1.61-1.55-1.84-1.52-4.03-2.61-6.16-3.67-2.8-1.39-5.46-2.74-7.44-4.99-1.61-1.84-2.86-4.28-3.53-7.37-2.56-11.66,1.16-18.87,6.97-23.54.17-.13.33-.27.5-.4,1.95-1.51,4.18-2.53,6.37-3.76,1.28-.71,2.54-1.49,3.68-2.48.56-.48,1.07-.99,1.55-1.56,1.6-1.89,2.6-4.23,3.58-6.49Z"/>
        <path class="cls-6" d="M57.32,42.86c-1.17,2.64-2.25,5.14-4.07,7.1-.29.31-.6.61-.92.89-1.51,1.32-3.26,2.25-5.1,3.15-1.91.93-3.89,1.79-5.7,2.97-.74.48-1.45,1.01-2.12,1.61-5.61,4.99-8.81,13.92-6.93,25.73.88,5.56,3.06,9.88,5.86,12.89,1.23,1.32,2.63,2.4,4.12,3.33,1.64,1.02,3.36,1.88,5.01,2.76,1.21.65,2.36,1.32,3.43,2.08.98.7,1.88,1.47,2.69,2.35,1.85,2,2.93,4.23,4.02,6.52,1.14,2.39,2.34,4.83,4.62,7.05,4.05,3.95,10.65,6.42,18.43,6.42,1.92,0,3.9-.15,5.91-.44,5.61-.83,10.07-2.7,13.04-5.39,2.47-2.23,3.75-5.12,5-7.92,1.09-2.46,2.15-4.85,3.96-6.81.71-.77,1.52-1.44,2.41-2.04.99-.67,2.11-1.24,3.28-1.8,2.06-.98,4.27-1.91,6.27-3.24.39-.26.78-.54,1.15-.84,1.82-1.41,3.37-3.18,4.52-5.26,4.34-7.84,4.49-20.85,1.17-28.94-.77-1.91-1.76-3.51-2.87-4.81-1.69-1.98-3.87-3.34-6.13-4.54-.88-.46-1.76-.89-2.63-1.34-1.81-.92-3.59-1.89-5.16-3.16-1.04-.84-1.99-1.78-2.81-2.85-1.24-1.61-1.93-3.13-2.57-4.62-.47-1.09-.93-2.2-1.59-3.32-4.43-7.59-12.49-11.68-24.49-10.96-1.92.12-3.76.28-5.44.62-3.92.79-9.29,2.91-11.97,5.53-2.06,2.02-3.25,4.68-4.39,7.28ZM58.63,43.43c1.3-2.98,2.55-5.82,4.82-7.87,1.85-1.68,4.86-3.01,8.27-3.76,2.1-.47,4.09-.77,5.71-.89,10.26-.77,20.21,2.23,24.93,10.19.6,1,1,2,1.44,3.04.64,1.52,1.33,3.06,2.6,4.75,1.2,1.6,2.63,2.9,4.2,4.03,1.18.85,2.43,1.57,3.68,2.25,1.86,1.01,3.71,1.93,5.36,3.06.96.65,1.83,1.39,2.63,2.23,1.92,2.02,3.54,4.72,4.55,8.11,1.14,3.79,1.66,8.33,1.44,12.75-.31,6.01-1.91,11.79-5.02,15.23-.18.2-.37.39-.57.58-1.79,1.69-4.26,2.74-6.71,3.78-2.28.95-4.62,1.94-6.51,3.48-1.08.88-1.98,1.87-2.75,2.95-.85,1.2-1.56,2.46-2.21,3.71-1.12,2.17-2.12,4.4-3.5,6.36-.39.56-.82,1.1-1.28,1.62-3.33,3.69-8.3,6.26-15.52,7.05-9.87,1.1-17.14-2.06-21.71-7.1-.53-.59-1.02-1.17-1.46-1.78-1.33-1.82-2.25-3.72-3.25-5.63-.84-1.6-1.73-3.19-2.98-4.67-.52-.61-1.09-1.2-1.74-1.76-2.01-1.73-4.42-2.94-6.77-4.1-3.13-1.56-6.11-3.06-8.24-5.74-1.67-2.1-2.97-4.93-3.71-8.4-2.57-11.95.56-21.63,6.48-27.26.18-.17.35-.33.53-.49,2.08-1.87,4.58-2.98,7.1-4.26,1.46-.74,2.92-1.54,4.25-2.58.65-.5,1.25-1.05,1.81-1.67,1.87-2.06,3.01-4.68,4.13-7.21Z"/>
        <path class="cls-5" d="M54.13,39.05c-1.29,2.89-2.49,5.62-4.53,7.7-.33.34-.68.65-1.04.95-1.68,1.39-3.63,2.34-5.68,3.28-2.1.96-4.28,1.89-6.23,3.24-.79.54-1.55,1.16-2.26,1.87-5.81,5.79-8.61,16.6-6.91,28.68.85,6.07,2.92,11.11,5.7,14.52,1.27,1.56,2.75,2.79,4.35,3.84,1.77,1.15,3.65,2.09,5.47,3.04,1.33.7,2.61,1.4,3.8,2.19,1.1.73,2.12,1.54,3.04,2.49,2.12,2.17,3.26,4.58,4.45,7.09,1.27,2.7,2.6,5.46,5.35,7.96,4.7,4.27,12.6,6.76,21.27,6.76,2.18,0,4.39-.15,6.6-.46,6.12-.85,11.27-2.82,14.69-5.74,2.84-2.43,4.28-5.65,5.67-8.77,1.21-2.73,2.38-5.35,4.42-7.44.81-.83,1.73-1.52,2.73-2.15,1.13-.7,2.37-1.29,3.68-1.88,2.29-1.03,4.72-2.05,6.85-3.6.42-.3.83-.63,1.23-.98,1.85-1.61,3.39-3.72,4.56-6.18,4.21-8.89,4.31-23.05.96-32.06-.79-2.14-1.78-3.97-2.92-5.44-1.77-2.29-4.13-3.84-6.6-5.18-.95-.51-1.92-.99-2.87-1.48-1.97-1.01-3.95-2.06-5.7-3.43-1.15-.9-2.21-1.92-3.13-3.1-1.4-1.81-2.1-3.48-2.76-5.12-.49-1.2-.97-2.44-1.72-3.68-4.94-8.23-14.77-12.02-26.81-11.56-2.2.08-4.32.24-6.28.57-4.36.73-11.01,2.93-14.17,5.77-2.49,2.24-3.88,5.31-5.2,8.3ZM55.44,39.62c1.44-3.25,2.8-6.34,5.35-8.52,2.03-1.74,5.44-3.15,9.07-4.01,2.28-.54,4.46-.91,6.2-1.07,11.24-1.06,23.84,1.66,29.3,10.67.68,1.12,1.11,2.24,1.58,3.4.67,1.68,1.39,3.4,2.85,5.33,1.37,1.79,3,3.2,4.77,4.41,1.34.91,2.75,1.69,4.16,2.43,2.1,1.11,4.16,2.14,5.96,3.46,1.04.76,1.99,1.63,2.82,2.65,1.93,2.34,3.5,5.58,4.48,9.48,1.09,4.32,1.54,9.39,1.25,14.3-.41,6.78-2.18,13.24-5.51,17.07-.2.23-.41.45-.62.67-2.02,1.99-4.75,3.14-7.45,4.27-2.49,1.03-5.06,2.11-7.1,3.87-1.15.99-2.1,2.13-2.9,3.35-.89,1.33-1.61,2.75-2.29,4.14-1.17,2.38-2.26,4.83-3.88,6.94-.46.6-.96,1.17-1.51,1.7-3.89,3.77-9.9,6.22-17.54,6.9-10.31.94-19.11-1.98-24.31-7.09-.63-.62-1.19-1.24-1.69-1.88-1.55-1.96-2.53-4.04-3.58-6.15-.88-1.76-1.81-3.53-3.15-5.2-.55-.68-1.17-1.34-1.87-1.98-2.17-1.94-4.82-3.26-7.39-4.54-3.48-1.72-6.76-3.39-9.04-6.48-1.74-2.36-3.09-5.58-3.88-9.42-2.58-12.23-.05-24.41,5.99-30.97.18-.2.37-.4.56-.59,2.21-2.23,4.98-3.43,7.82-4.77,1.64-.77,3.3-1.59,4.82-2.68.73-.53,1.43-1.11,2.07-1.78,2.14-2.22,3.42-5.12,4.67-7.93Z"/>
        <path class="cls-2" d="M50.94,35.23c-1.4,3.13-2.72,6.09-4.99,8.31-.37.36-.75.69-1.15,1-1.86,1.45-4.01,2.42-6.27,3.41-2.3,1-4.67,2-6.76,3.52-.85.61-1.65,1.31-2.39,2.13-6.01,6.59-8.42,19.28-6.89,31.63.82,6.58,2.77,12.33,5.55,16.15,1.3,1.79,2.87,3.18,4.59,4.35,1.89,1.28,3.93,2.3,5.93,3.31,1.46.74,2.86,1.47,4.18,2.3,1.22.77,2.36,1.62,3.38,2.62,2.38,2.34,3.6,4.94,4.87,7.66,1.4,3,2.86,6.09,6.08,8.86,5.34,4.6,14.55,7.1,24.11,7.1,2.43,0,4.88-.16,7.29-.48,6.62-.88,12.46-2.93,16.33-6.1,3.22-2.63,4.81-6.19,6.34-9.63,1.34-3,2.61-5.85,4.88-8.08.91-.89,1.94-1.61,3.05-2.25,1.26-.72,2.64-1.33,4.07-1.95,2.53-1.09,5.16-2.19,7.44-3.96.45-.35.88-.72,1.3-1.13,1.88-1.81,3.42-4.25,4.6-7.11,4.11-9.95,4.13-25.24.75-35.17-.8-2.37-1.81-4.42-2.97-6.06-1.84-2.6-4.38-4.34-7.07-5.82-1.03-.57-2.08-1.09-3.11-1.62-2.14-1.09-4.3-2.23-6.24-3.7-1.27-.96-2.43-2.05-3.44-3.36-1.56-2.01-2.28-3.83-2.96-5.61-.5-1.32-1.02-2.67-1.86-4.03-5.44-8.88-17.05-12.39-29.13-12.17-2.48.05-4.88.21-7.12.52-4.79.68-12.73,2.95-16.38,6.01-2.93,2.46-4.5,5.95-6.01,9.33ZM52.24,35.81c1.57-3.52,3.06-6.85,5.88-9.17,2.2-1.81,6.01-3.3,9.87-4.26,2.46-.62,4.84-1.05,6.7-1.24,12.23-1.32,27.46,1.09,33.67,11.15.77,1.24,1.22,2.47,1.72,3.77.7,1.84,1.45,3.74,3.11,5.9,1.53,1.99,3.37,3.51,5.35,4.79,1.5.97,3.07,1.81,4.63,2.62,2.33,1.21,4.61,2.36,6.56,3.87,1.13.87,2.14,1.87,3.01,3.06,1.95,2.67,3.47,6.44,4.41,10.86,1.04,4.86,1.42,10.46,1.06,15.85-.51,7.55-2.44,14.7-5.99,18.92-.22.26-.45.51-.68.75-2.24,2.29-5.25,3.54-8.18,4.77-2.7,1.12-5.5,2.29-7.68,4.27-1.23,1.11-2.21,2.39-3.05,3.75-.91,1.48-1.66,3.04-2.37,4.58-1.22,2.6-2.41,5.27-4.25,7.51-.52.63-1.1,1.23-1.73,1.78-4.45,3.86-11.5,6.18-19.57,6.75-10.75.78-21.09-1.88-26.91-7.08-.73-.65-1.36-1.31-1.92-1.98-1.77-2.11-2.81-4.35-3.92-6.68-.93-1.92-1.88-3.87-3.31-5.72-.58-.75-1.24-1.48-2.01-2.19-2.34-2.15-5.21-3.59-8.01-4.97-3.81-1.89-7.42-3.7-9.85-7.22-1.81-2.61-3.2-6.24-4.06-10.45-2.59-12.52-.67-27.19,5.5-34.69.19-.23.39-.46.59-.68,2.34-2.59,5.38-3.87,8.54-5.27,1.83-.81,3.69-1.64,5.39-2.78.82-.55,1.61-1.17,2.33-1.89,2.41-2.38,3.83-5.57,5.22-8.65Z"/>
        <path class="cls-1" d="M139.13,53.4c-2.65-4.02-6.83-6.16-10.9-8.22-3.8-1.96-7.75-3.97-10.54-7.58-1.72-2.22-2.45-4.19-3.15-6.11-.51-1.43-1.06-2.9-1.99-4.39-5.95-9.52-19.33-12.77-31.44-12.77-2.76,0-5.45.17-7.96.47-5.23.63-14.46,2.97-18.59,6.25-3.37,2.67-5.13,6.58-6.82,10.35-1.53,3.37-2.96,6.56-5.45,8.92-2.29,2.16-5.12,3.35-8.11,4.6-3.5,1.46-7.12,2.96-9.82,6.18-9.71,11.54-9.18,40.61-1.47,52.36,2.79,4.26,7.06,6.39,11.21,8.45,3.05,1.52,5.93,2.96,8.28,5.18,2.65,2.52,3.93,5.29,5.29,8.22,1.53,3.3,3.12,6.73,6.81,9.77,5.98,4.95,16.5,7.44,26.95,7.44s20.06-2.3,25.95-6.95c3.59-2.83,5.33-6.72,7.01-10.48,1.46-3.27,2.85-6.35,5.33-8.71,2.16-2.03,4.92-3.17,7.84-4.39,3.3-1.37,6.72-2.79,9.41-5.59,9.97-10.47,9.79-41.44,2.16-53.01ZM135.93,105.42c-2.47,2.59-5.75,3.95-8.91,5.26-2.92,1.2-5.93,2.46-8.26,4.66-2.7,2.56-4.22,5.92-5.66,9.17-1.62,3.6-3.27,7.34-6.59,9.95-11.6,9.14-39.78,8.88-51.1-.47-3.45-2.83-4.89-5.96-6.42-9.28-1.36-2.92-2.76-5.93-5.62-8.65-2.5-2.36-5.61-3.92-8.62-5.41-4.15-2.07-8.06-4.03-10.65-7.96-7.29-11.14-7.82-39.72,1.39-50.66,2.47-2.95,5.78-4.32,9.27-5.78,2.99-1.24,6.08-2.53,8.55-4.89,2.69-2.55,4.25-6.02,5.76-9.37,1.7-3.79,3.32-7.36,6.41-9.82,3.92-3.09,12.8-5.33,17.86-5.93,13.21-1.59,31.09.51,38.04,11.63.86,1.36,1.34,2.7,1.86,4.13.74,2,1.5,4.09,3.36,6.48,2.97,3.86,7.06,5.95,11.02,7.98,4.06,2.07,7.91,4.03,10.35,7.75,7.39,11.18,7.59,41.12-2.02,51.22Z"/>
      </g>
    </g>
  </g>
</svg>