<?xml version="1.0" encoding="UTF-8"?>
<svg id="Capa_2" data-name="Capa 2" xmlns="http://www.w3.org/2000/svg" viewBox="0 0 145.23 145.26">
  <defs>
    <style>
      .cls-1 {
        fill: #02e1fe;
      }
    </style>
  </defs>
  <g id="Capa_1-2" data-name="Capa 1">
    <g>
      <path class="cls-1" d="M77.18,0c1.63.44,3.5.38,5.21.61,59.17,7.83,84.05,81.06,41.58,123.5C81.6,166.45,8.33,141.46.61,82.39c-.22-1.71-.17-3.57-.61-5.21v-6.24c1.66-6.04,7.68-9.27,13.48-6.25s4.43,10.57,5.29,16.28c6.12,40.74,54.22,59.94,87.04,34.92s26.42-76.8-11.41-93.23c-8.23-3.58-13.8-3.72-22.46-4.5-10.6-.95-11.23-15.77-1-18.15h6.24Z"/>
      <path class="cls-1" d="M63.56,63.56v-25.68c0-1.45,1.86-4.26,2.97-5.26,5.68-5.06,14.54-1.47,15.2,6.1.71,8.24-.56,17.48,0,25.82,8.02,9.73-1.34,23.75-13.42,19.38-1.18-.43-3.15-2.08-3.76-2.2-5.42-1.03-13.82,1.82-18.59-1.84s-4.74-11.38.48-14.86c.55-.37,3.13-1.47,3.64-1.47h13.48Z"/>
      <path class="cls-1" d="M15.82,34.97c12.21-1.78,14.68,14.88,4.34,17.67-12.64,3.42-15.9-15.98-4.34-17.67Z"/>
      <path class="cls-1" d="M40.24,11.41c11.62-.75,12.89,16.73,2.15,18.06-13.19,1.64-14.13-17.29-2.15-18.06Z"/>
    </g>
  </g>
</svg>