<?xml version="1.0" encoding="UTF-8"?>
<svg id="Capa_2" data-name="Capa 2" xmlns="http://www.w3.org/2000/svg" viewBox="0 0 131.51 133.16">
  <defs>
    <style>
      .cls-1 {
        fill: #02e1fe;
      }
    </style>
  </defs>
  <g id="Capa_1-2" data-name="Capa 1">
    <g>
      <path class="cls-1" d="M23.56,109.71c7.64,1.58,15.34,3.08,23.1,3.99,19.82,2.33,39.25,1.49,58.85-2.09,4.94-.9,10.83-2.9,15.53-3.48,11.07-1.38,15.11,14.03,3.41,17.88-3.07,1.01-6.89,1.72-10.09,2.39-31.23,6.59-68.01,6.72-98.86-1.98-8.18-2.31-8.17-6.06-9.96-13.59C-1.6,82.83-1.66,49.15,4.34,18.95c.85-4.3,2.41-13.76,5.54-16.6,5.91-5.35,15.1-.98,15.33,6.82-1.03,4.97-2.36,9.86-3.31,14.84-5.37,28.25-4.96,57.7,1.67,85.69Z"/>
      <path class="cls-1" d="M110.8,98.6c-5.23,5.37-18.38,1.69-24.4-1.07-4.08-1.87-12.45-7.15-14.33-11.2-3.12-6.73,3.08-12.62,6.78-17.55l-8.96-14.6c-2.68-3.63-6.21.24-9.48,1.26-8.74,2.71-18.19-.27-23.67-7.54-2.02-2.68-7.57-11.32-7.79-14.34-.58-7.95,8.98-12.76,15.14-7.47,3,2.57,4.75,8.46,7.37,11.07,2.47,2.46,3.83.4,6-.54,6.39-2.78,12.38-3.15,18.83-.17,8.95,4.14,12.37,14.89,17.89,22.41l.67.13c5.25-1.37,12.74-3.88,17.21.42,7.13,6.86,5.57,32.21-1.24,39.2Z"/>
    </g>
  </g>
</svg>