<?xml version="1.0" encoding="UTF-8"?>
<svg id="Capa_2" data-name="Capa 2" xmlns="http://www.w3.org/2000/svg" viewBox="0 0 133.75 145.73">
  <defs>
    <style>
      .cls-1 {
        fill: #02e1fe;
      }
    </style>
  </defs>
  <g id="Capa_1-2" data-name="Capa 1">
    <g>
      <path class="cls-1" d="M105.76,0c15.84,2.05,26.72,13.98,27.54,29.92,1.45,28.21-1.11,57.65-.02,85.99-.61,15.34-12.82,28.31-28.23,29.37-20.8,1.43-43.17-1.08-64.14.02-11.43-.69-21.53-7.64-26.23-18.03-3.45-.66-8,.68-11.18-.74-4.34-1.94-4.7-8.04-.73-10.59.37-.24,2.39-1.01,2.68-1.01h6.67v-11.92h-6.67c-.15,0-1.82-.6-2.1-.74-3.55-1.78-4.51-6.74-1.73-9.62.43-.45,2.78-1.85,3.26-1.85h7.24v-12.2h-7.52c-.13,0-1.69-.74-1.94-.9-3.52-2.29-3.52-7.84,0-10.12.25-.16,1.82-.9,1.94-.9h7.52v-12.2h-7.24c-.48,0-2.83-1.4-3.26-1.85-2.73-2.84-1.9-7.66,1.55-9.51.35-.19,2.04-.84,2.28-.84h6.67v-11.92h-6.67c-.6,0-2.39-.89-2.95-1.3-3.71-2.72-3.2-8.42,1-10.3,3.17-1.42,7.73-.08,11.18-.74,3.48-7.52,9.67-13.45,17.52-16.25,2.08-.74,5.29-1.59,7.45-1.77h66.11ZM39.58,12.28c-7.92,1.31-14.16,7.73-15.26,15.67v89.1c.95,8.27,7.53,14.86,15.75,16.02h64.7c8.79-.86,15.61-8.13,16.32-16.87V29.07c-.7-8.66-7.37-15.84-16.05-16.87l-65.46.07Z"/>
      <path class="cls-1" d="M70.51,36.4c24.36-2.77,27.62,34.39,3.61,36.24-23.56,1.81-26.73-33.61-3.61-36.24Z"/>
      <path class="cls-1" d="M70.8,78.97c13.46-.87,26.41,7.11,30.5,20.12,1.02,3.26,2.58,10.16.73,13.09-2.75,4.33-9.44,3.5-10.94-1.45-.48-1.6-.18-2.69-.4-4.14-2.86-18.83-28.63-21.49-35.08-3.94-1.52,4.12-.11,11.45-5.91,12.25s-7.55-3.34-7.21-8.34c1.04-15.46,13.05-26.6,28.31-27.58Z"/>
    </g>
  </g>
</svg>